<mxfile host="app.diagrams.net" modified="2023-06-12T06:58:34.998Z" agent="Mozilla/5.0 (Macintosh; Intel Mac OS X 10_15_7) AppleWebKit/537.36 (KHTML, like Gecko) Chrome/114.0.0.0 Safari/537.36" etag="NxmnkzNyEjIMfRW3cUqh" version="21.3.8" type="device">
  <diagram name="Page-1" id="WUQg41ddvhskJoTHI96X">
    <mxGraphModel dx="1010" dy="1143" grid="1" gridSize="10" guides="1" tooltips="1" connect="1" arrows="1" fold="1" page="1" pageScale="1" pageWidth="850" pageHeight="1100" math="0" shadow="0">
      <root>
        <mxCell id="0" />
        <mxCell id="1" parent="0" />
        <mxCell id="UOWZPONmYOvx8WyAluzy-37" style="edgeStyle=orthogonalEdgeStyle;rounded=0;orthogonalLoop=1;jettySize=auto;html=1;entryX=0;entryY=0.25;entryDx=0;entryDy=0;" parent="1" source="UOWZPONmYOvx8WyAluzy-5" target="UOWZPONmYOvx8WyAluzy-9" edge="1">
          <mxGeometry relative="1" as="geometry" />
        </mxCell>
        <mxCell id="UOWZPONmYOvx8WyAluzy-38" value="1" style="edgeLabel;html=1;align=center;verticalAlign=middle;resizable=0;points=[];" parent="UOWZPONmYOvx8WyAluzy-37" vertex="1" connectable="0">
          <mxGeometry x="-0.8627" y="-1" relative="1" as="geometry">
            <mxPoint as="offset" />
          </mxGeometry>
        </mxCell>
        <mxCell id="UOWZPONmYOvx8WyAluzy-39" value="n" style="edgeLabel;html=1;align=center;verticalAlign=middle;resizable=0;points=[];" parent="UOWZPONmYOvx8WyAluzy-37" vertex="1" connectable="0">
          <mxGeometry x="0.8064" y="2" relative="1" as="geometry">
            <mxPoint as="offset" />
          </mxGeometry>
        </mxCell>
        <mxCell id="UOWZPONmYOvx8WyAluzy-5" value="Users" style="swimlane;fontStyle=0;childLayout=stackLayout;horizontal=1;startSize=26;fillColor=none;horizontalStack=0;resizeParent=1;resizeParentMax=0;resizeLast=0;collapsible=1;marginBottom=0;whiteSpace=wrap;html=1;" parent="1" vertex="1">
          <mxGeometry x="100" y="100" width="180" height="182" as="geometry" />
        </mxCell>
        <mxCell id="UOWZPONmYOvx8WyAluzy-6" value="+ username: type" style="text;strokeColor=none;fillColor=none;align=left;verticalAlign=top;spacingLeft=4;spacingRight=4;overflow=hidden;rotatable=0;points=[[0,0.5],[1,0.5]];portConstraint=eastwest;whiteSpace=wrap;html=1;" parent="UOWZPONmYOvx8WyAluzy-5" vertex="1">
          <mxGeometry y="26" width="180" height="26" as="geometry" />
        </mxCell>
        <mxCell id="7reBWwmH2FoituciZp9q-1" value="+ email: type" style="text;strokeColor=none;fillColor=none;align=left;verticalAlign=top;spacingLeft=4;spacingRight=4;overflow=hidden;rotatable=0;points=[[0,0.5],[1,0.5]];portConstraint=eastwest;whiteSpace=wrap;html=1;" parent="UOWZPONmYOvx8WyAluzy-5" vertex="1">
          <mxGeometry y="52" width="180" height="26" as="geometry" />
        </mxCell>
        <mxCell id="7reBWwmH2FoituciZp9q-2" value="+ name: type" style="text;strokeColor=none;fillColor=none;align=left;verticalAlign=top;spacingLeft=4;spacingRight=4;overflow=hidden;rotatable=0;points=[[0,0.5],[1,0.5]];portConstraint=eastwest;whiteSpace=wrap;html=1;" parent="UOWZPONmYOvx8WyAluzy-5" vertex="1">
          <mxGeometry y="78" width="180" height="26" as="geometry" />
        </mxCell>
        <mxCell id="7reBWwmH2FoituciZp9q-3" value="+ avatar: type" style="text;strokeColor=none;fillColor=none;align=left;verticalAlign=top;spacingLeft=4;spacingRight=4;overflow=hidden;rotatable=0;points=[[0,0.5],[1,0.5]];portConstraint=eastwest;whiteSpace=wrap;html=1;" parent="UOWZPONmYOvx8WyAluzy-5" vertex="1">
          <mxGeometry y="104" width="180" height="26" as="geometry" />
        </mxCell>
        <mxCell id="7reBWwmH2FoituciZp9q-4" value="+ totalScore: type" style="text;strokeColor=none;fillColor=none;align=left;verticalAlign=top;spacingLeft=4;spacingRight=4;overflow=hidden;rotatable=0;points=[[0,0.5],[1,0.5]];portConstraint=eastwest;whiteSpace=wrap;html=1;" parent="UOWZPONmYOvx8WyAluzy-5" vertex="1">
          <mxGeometry y="130" width="180" height="26" as="geometry" />
        </mxCell>
        <mxCell id="7reBWwmH2FoituciZp9q-5" value="+ avgMinutesToSolution: type" style="text;strokeColor=none;fillColor=none;align=left;verticalAlign=top;spacingLeft=4;spacingRight=4;overflow=hidden;rotatable=0;points=[[0,0.5],[1,0.5]];portConstraint=eastwest;whiteSpace=wrap;html=1;" parent="UOWZPONmYOvx8WyAluzy-5" vertex="1">
          <mxGeometry y="156" width="180" height="26" as="geometry" />
        </mxCell>
        <mxCell id="UOWZPONmYOvx8WyAluzy-25" style="edgeStyle=orthogonalEdgeStyle;rounded=0;orthogonalLoop=1;jettySize=auto;html=1;exitX=0.5;exitY=0;exitDx=0;exitDy=0;entryX=0.5;entryY=0;entryDx=0;entryDy=0;" parent="1" source="UOWZPONmYOvx8WyAluzy-9" target="UOWZPONmYOvx8WyAluzy-17" edge="1">
          <mxGeometry relative="1" as="geometry" />
        </mxCell>
        <mxCell id="UOWZPONmYOvx8WyAluzy-29" value="1" style="edgeLabel;html=1;align=center;verticalAlign=middle;resizable=0;points=[];" parent="UOWZPONmYOvx8WyAluzy-25" vertex="1" connectable="0">
          <mxGeometry x="0.6766" y="1" relative="1" as="geometry">
            <mxPoint as="offset" />
          </mxGeometry>
        </mxCell>
        <mxCell id="UOWZPONmYOvx8WyAluzy-30" value="1" style="edgeLabel;html=1;align=center;verticalAlign=middle;resizable=0;points=[];" parent="UOWZPONmYOvx8WyAluzy-25" vertex="1" connectable="0">
          <mxGeometry x="-0.7247" y="-1" relative="1" as="geometry">
            <mxPoint as="offset" />
          </mxGeometry>
        </mxCell>
        <mxCell id="UOWZPONmYOvx8WyAluzy-31" style="edgeStyle=orthogonalEdgeStyle;rounded=0;orthogonalLoop=1;jettySize=auto;html=1;entryX=0.5;entryY=0;entryDx=0;entryDy=0;" parent="1" source="UOWZPONmYOvx8WyAluzy-21" target="UOWZPONmYOvx8WyAluzy-13" edge="1">
          <mxGeometry relative="1" as="geometry" />
        </mxCell>
        <mxCell id="UOWZPONmYOvx8WyAluzy-32" value="1" style="edgeLabel;html=1;align=center;verticalAlign=middle;resizable=0;points=[];" parent="UOWZPONmYOvx8WyAluzy-31" vertex="1" connectable="0">
          <mxGeometry x="0.7067" y="-1" relative="1" as="geometry">
            <mxPoint as="offset" />
          </mxGeometry>
        </mxCell>
        <mxCell id="UOWZPONmYOvx8WyAluzy-33" value="1" style="edgeLabel;html=1;align=center;verticalAlign=middle;resizable=0;points=[];" parent="UOWZPONmYOvx8WyAluzy-31" vertex="1" connectable="0">
          <mxGeometry x="-0.7495" y="1" relative="1" as="geometry">
            <mxPoint as="offset" />
          </mxGeometry>
        </mxCell>
        <mxCell id="UOWZPONmYOvx8WyAluzy-34" style="edgeStyle=orthogonalEdgeStyle;rounded=0;orthogonalLoop=1;jettySize=auto;html=1;entryX=0.5;entryY=0;entryDx=0;entryDy=0;" parent="1" source="UOWZPONmYOvx8WyAluzy-9" target="UOWZPONmYOvx8WyAluzy-15" edge="1">
          <mxGeometry relative="1" as="geometry" />
        </mxCell>
        <mxCell id="UOWZPONmYOvx8WyAluzy-35" value="1" style="edgeLabel;html=1;align=center;verticalAlign=middle;resizable=0;points=[];" parent="UOWZPONmYOvx8WyAluzy-34" vertex="1" connectable="0">
          <mxGeometry x="-0.8376" y="-1" relative="1" as="geometry">
            <mxPoint as="offset" />
          </mxGeometry>
        </mxCell>
        <mxCell id="UOWZPONmYOvx8WyAluzy-36" value="1" style="edgeLabel;html=1;align=center;verticalAlign=middle;resizable=0;points=[];" parent="UOWZPONmYOvx8WyAluzy-34" vertex="1" connectable="0">
          <mxGeometry x="0.7732" y="-1" relative="1" as="geometry">
            <mxPoint as="offset" />
          </mxGeometry>
        </mxCell>
        <mxCell id="UOWZPONmYOvx8WyAluzy-9" value="Sessions" style="swimlane;fontStyle=0;childLayout=stackLayout;horizontal=1;startSize=26;fillColor=none;horizontalStack=0;resizeParent=1;resizeParentMax=0;resizeLast=0;collapsible=1;marginBottom=0;whiteSpace=wrap;html=1;" parent="1" vertex="1">
          <mxGeometry x="460" y="210" width="140" height="156" as="geometry" />
        </mxCell>
        <mxCell id="UOWZPONmYOvx8WyAluzy-10" value="+ user: type" style="text;strokeColor=none;fillColor=none;align=left;verticalAlign=top;spacingLeft=4;spacingRight=4;overflow=hidden;rotatable=0;points=[[0,0.5],[1,0.5]];portConstraint=eastwest;whiteSpace=wrap;html=1;" parent="UOWZPONmYOvx8WyAluzy-9" vertex="1">
          <mxGeometry y="26" width="140" height="26" as="geometry" />
        </mxCell>
        <mxCell id="7reBWwmH2FoituciZp9q-7" value="+ startTime: dateTime" style="text;strokeColor=none;fillColor=none;align=left;verticalAlign=top;spacingLeft=4;spacingRight=4;overflow=hidden;rotatable=0;points=[[0,0.5],[1,0.5]];portConstraint=eastwest;whiteSpace=wrap;html=1;" parent="UOWZPONmYOvx8WyAluzy-9" vertex="1">
          <mxGeometry y="52" width="140" height="26" as="geometry" />
        </mxCell>
        <mxCell id="7reBWwmH2FoituciZp9q-8" value="+ endTime: dateTime" style="text;strokeColor=none;fillColor=none;align=left;verticalAlign=top;spacingLeft=4;spacingRight=4;overflow=hidden;rotatable=0;points=[[0,0.5],[1,0.5]];portConstraint=eastwest;whiteSpace=wrap;html=1;" parent="UOWZPONmYOvx8WyAluzy-9" vertex="1">
          <mxGeometry y="78" width="140" height="26" as="geometry" />
        </mxCell>
        <mxCell id="7reBWwmH2FoituciZp9q-9" value="+ lab: relation" style="text;strokeColor=none;fillColor=none;align=left;verticalAlign=top;spacingLeft=4;spacingRight=4;overflow=hidden;rotatable=0;points=[[0,0.5],[1,0.5]];portConstraint=eastwest;whiteSpace=wrap;html=1;" parent="UOWZPONmYOvx8WyAluzy-9" vertex="1">
          <mxGeometry y="104" width="140" height="26" as="geometry" />
        </mxCell>
        <mxCell id="7reBWwmH2FoituciZp9q-11" value="+ clusterRunning: bool" style="text;strokeColor=none;fillColor=none;align=left;verticalAlign=top;spacingLeft=4;spacingRight=4;overflow=hidden;rotatable=0;points=[[0,0.5],[1,0.5]];portConstraint=eastwest;whiteSpace=wrap;html=1;" parent="UOWZPONmYOvx8WyAluzy-9" vertex="1">
          <mxGeometry y="130" width="140" height="26" as="geometry" />
        </mxCell>
        <mxCell id="UOWZPONmYOvx8WyAluzy-13" value="Kubelab Agent" style="html=1;dropTarget=0;whiteSpace=wrap;" parent="1" vertex="1">
          <mxGeometry x="470" y="530" width="130" height="60" as="geometry" />
        </mxCell>
        <mxCell id="UOWZPONmYOvx8WyAluzy-14" value="" style="shape=module;jettyWidth=8;jettyHeight=4;" parent="UOWZPONmYOvx8WyAluzy-13" vertex="1">
          <mxGeometry x="1" width="20" height="20" relative="1" as="geometry">
            <mxPoint x="-27" y="7" as="offset" />
          </mxGeometry>
        </mxCell>
        <mxCell id="UOWZPONmYOvx8WyAluzy-15" value="vCluster" style="html=1;dropTarget=0;whiteSpace=wrap;" parent="1" vertex="1">
          <mxGeometry x="310" y="400" width="120" height="60" as="geometry" />
        </mxCell>
        <mxCell id="UOWZPONmYOvx8WyAluzy-16" value="" style="shape=module;jettyWidth=8;jettyHeight=4;" parent="UOWZPONmYOvx8WyAluzy-15" vertex="1">
          <mxGeometry x="1" width="20" height="20" relative="1" as="geometry">
            <mxPoint x="-27" y="7" as="offset" />
          </mxGeometry>
        </mxCell>
        <mxCell id="UOWZPONmYOvx8WyAluzy-26" style="edgeStyle=orthogonalEdgeStyle;rounded=0;orthogonalLoop=1;jettySize=auto;html=1;entryX=0.5;entryY=0;entryDx=0;entryDy=0;" parent="1" source="UOWZPONmYOvx8WyAluzy-17" target="UOWZPONmYOvx8WyAluzy-21" edge="1">
          <mxGeometry relative="1" as="geometry" />
        </mxCell>
        <mxCell id="UOWZPONmYOvx8WyAluzy-27" value="n" style="edgeLabel;html=1;align=center;verticalAlign=middle;resizable=0;points=[];" parent="UOWZPONmYOvx8WyAluzy-26" vertex="1" connectable="0">
          <mxGeometry x="0.4171" relative="1" as="geometry">
            <mxPoint as="offset" />
          </mxGeometry>
        </mxCell>
        <mxCell id="UOWZPONmYOvx8WyAluzy-28" value="1" style="edgeLabel;html=1;align=center;verticalAlign=middle;resizable=0;points=[];" parent="UOWZPONmYOvx8WyAluzy-26" vertex="1" connectable="0">
          <mxGeometry x="-0.6667" y="-1" relative="1" as="geometry">
            <mxPoint as="offset" />
          </mxGeometry>
        </mxCell>
        <mxCell id="UOWZPONmYOvx8WyAluzy-17" value="Labs" style="swimlane;fontStyle=0;childLayout=stackLayout;horizontal=1;startSize=26;fillColor=none;horizontalStack=0;resizeParent=1;resizeParentMax=0;resizeLast=0;collapsible=1;marginBottom=0;whiteSpace=wrap;html=1;" parent="1" vertex="1">
          <mxGeometry x="630" y="140" width="140" height="130" as="geometry" />
        </mxCell>
        <mxCell id="UOWZPONmYOvx8WyAluzy-18" value="+ title: text" style="text;strokeColor=none;fillColor=none;align=left;verticalAlign=top;spacingLeft=4;spacingRight=4;overflow=hidden;rotatable=0;points=[[0,0.5],[1,0.5]];portConstraint=eastwest;whiteSpace=wrap;html=1;" parent="UOWZPONmYOvx8WyAluzy-17" vertex="1">
          <mxGeometry y="26" width="140" height="26" as="geometry" />
        </mxCell>
        <mxCell id="7reBWwmH2FoituciZp9q-14" value="+ description: text" style="text;strokeColor=none;fillColor=none;align=left;verticalAlign=top;spacingLeft=4;spacingRight=4;overflow=hidden;rotatable=0;points=[[0,0.5],[1,0.5]];portConstraint=eastwest;whiteSpace=wrap;html=1;" parent="UOWZPONmYOvx8WyAluzy-17" vertex="1">
          <mxGeometry y="52" width="140" height="26" as="geometry" />
        </mxCell>
        <mxCell id="7reBWwmH2FoituciZp9q-15" value="+ docs: url" style="text;strokeColor=none;fillColor=none;align=left;verticalAlign=top;spacingLeft=4;spacingRight=4;overflow=hidden;rotatable=0;points=[[0,0.5],[1,0.5]];portConstraint=eastwest;whiteSpace=wrap;html=1;" parent="UOWZPONmYOvx8WyAluzy-17" vertex="1">
          <mxGeometry y="78" width="140" height="26" as="geometry" />
        </mxCell>
        <mxCell id="7reBWwmH2FoituciZp9q-16" value="+ exercises: relation" style="text;strokeColor=none;fillColor=none;align=left;verticalAlign=top;spacingLeft=4;spacingRight=4;overflow=hidden;rotatable=0;points=[[0,0.5],[1,0.5]];portConstraint=eastwest;whiteSpace=wrap;html=1;" parent="UOWZPONmYOvx8WyAluzy-17" vertex="1">
          <mxGeometry y="104" width="140" height="26" as="geometry" />
        </mxCell>
        <mxCell id="UOWZPONmYOvx8WyAluzy-21" value="Exercises" style="swimlane;fontStyle=0;childLayout=stackLayout;horizontal=1;startSize=26;fillColor=none;horizontalStack=0;resizeParent=1;resizeParentMax=0;resizeLast=0;collapsible=1;marginBottom=0;whiteSpace=wrap;html=1;" parent="1" vertex="1">
          <mxGeometry x="630" y="352" width="140" height="208" as="geometry" />
        </mxCell>
        <mxCell id="UOWZPONmYOvx8WyAluzy-24" value="+ title: text" style="text;strokeColor=none;fillColor=none;align=left;verticalAlign=top;spacingLeft=4;spacingRight=4;overflow=hidden;rotatable=0;points=[[0,0.5],[1,0.5]];portConstraint=eastwest;whiteSpace=wrap;html=1;" parent="UOWZPONmYOvx8WyAluzy-21" vertex="1">
          <mxGeometry y="26" width="140" height="26" as="geometry" />
        </mxCell>
        <mxCell id="7reBWwmH2FoituciZp9q-13" value="+ description: text" style="text;strokeColor=none;fillColor=none;align=left;verticalAlign=top;spacingLeft=4;spacingRight=4;overflow=hidden;rotatable=0;points=[[0,0.5],[1,0.5]];portConstraint=eastwest;whiteSpace=wrap;html=1;" parent="UOWZPONmYOvx8WyAluzy-21" vertex="1">
          <mxGeometry y="52" width="140" height="26" as="geometry" />
        </mxCell>
        <mxCell id="7reBWwmH2FoituciZp9q-12" value="+ docs: url" style="text;strokeColor=none;fillColor=none;align=left;verticalAlign=top;spacingLeft=4;spacingRight=4;overflow=hidden;rotatable=0;points=[[0,0.5],[1,0.5]];portConstraint=eastwest;whiteSpace=wrap;html=1;" parent="UOWZPONmYOvx8WyAluzy-21" vertex="1">
          <mxGeometry y="78" width="140" height="26" as="geometry" />
        </mxCell>
        <mxCell id="UOWZPONmYOvx8WyAluzy-41" value="+ hint: url" style="text;strokeColor=none;fillColor=none;align=left;verticalAlign=top;spacingLeft=4;spacingRight=4;overflow=hidden;rotatable=0;points=[[0,0.5],[1,0.5]];portConstraint=eastwest;whiteSpace=wrap;html=1;" parent="UOWZPONmYOvx8WyAluzy-21" vertex="1">
          <mxGeometry y="104" width="140" height="26" as="geometry" />
        </mxCell>
        <mxCell id="UOWZPONmYOvx8WyAluzy-42" value="+ solution: url" style="text;strokeColor=none;fillColor=none;align=left;verticalAlign=top;spacingLeft=4;spacingRight=4;overflow=hidden;rotatable=0;points=[[0,0.5],[1,0.5]];portConstraint=eastwest;whiteSpace=wrap;html=1;" parent="UOWZPONmYOvx8WyAluzy-21" vertex="1">
          <mxGeometry y="130" width="140" height="26" as="geometry" />
        </mxCell>
        <mxCell id="UOWZPONmYOvx8WyAluzy-43" value="+ check: url" style="text;strokeColor=none;fillColor=none;align=left;verticalAlign=top;spacingLeft=4;spacingRight=4;overflow=hidden;rotatable=0;points=[[0,0.5],[1,0.5]];portConstraint=eastwest;whiteSpace=wrap;html=1;" parent="UOWZPONmYOvx8WyAluzy-21" vertex="1">
          <mxGeometry y="156" width="140" height="26" as="geometry" />
        </mxCell>
        <mxCell id="UOWZPONmYOvx8WyAluzy-44" value="+ bootstrap: url" style="text;strokeColor=none;fillColor=none;align=left;verticalAlign=top;spacingLeft=4;spacingRight=4;overflow=hidden;rotatable=0;points=[[0,0.5],[1,0.5]];portConstraint=eastwest;whiteSpace=wrap;html=1;" parent="UOWZPONmYOvx8WyAluzy-21" vertex="1">
          <mxGeometry y="182" width="140" height="26" as="geometry" />
        </mxCell>
        <mxCell id="UOWZPONmYOvx8WyAluzy-45" value="" style="strokeWidth=1;shadow=0;dashed=0;align=center;html=1;shape=mxgraph.mockup.containers.browserWindow;rSize=0;strokeColor=#666666;strokeColor2=#008cff;strokeColor3=#c4c4c4;mainText=,;recursiveResize=0;" parent="1" vertex="1">
          <mxGeometry x="220" y="710" width="550" height="380" as="geometry" />
        </mxCell>
        <mxCell id="UOWZPONmYOvx8WyAluzy-46" value="Page 1" style="strokeWidth=1;shadow=0;dashed=0;align=center;html=1;shape=mxgraph.mockup.containers.anchor;fontSize=17;fontColor=#666666;align=left;whiteSpace=wrap;" parent="UOWZPONmYOvx8WyAluzy-45" vertex="1">
          <mxGeometry x="60" y="12" width="110" height="26" as="geometry" />
        </mxCell>
        <mxCell id="UOWZPONmYOvx8WyAluzy-47" value="https://www.draw.io" style="strokeWidth=1;shadow=0;dashed=0;align=center;html=1;shape=mxgraph.mockup.containers.anchor;rSize=0;fontSize=17;fontColor=#666666;align=left;" parent="UOWZPONmYOvx8WyAluzy-45" vertex="1">
          <mxGeometry x="130" y="60" width="250" height="26" as="geometry" />
        </mxCell>
        <mxCell id="UOWZPONmYOvx8WyAluzy-48" value="Lab1" style="text;strokeColor=none;fillColor=none;align=left;verticalAlign=middle;spacingLeft=4;spacingRight=4;overflow=hidden;points=[[0,0.5],[1,0.5]];portConstraint=eastwest;rotatable=0;whiteSpace=wrap;html=1;" parent="UOWZPONmYOvx8WyAluzy-45" vertex="1">
          <mxGeometry x="50" y="120" width="80" height="30" as="geometry" />
        </mxCell>
        <mxCell id="UOWZPONmYOvx8WyAluzy-49" value="Lab2" style="text;strokeColor=none;fillColor=none;align=left;verticalAlign=middle;spacingLeft=4;spacingRight=4;overflow=hidden;points=[[0,0.5],[1,0.5]];portConstraint=eastwest;rotatable=0;whiteSpace=wrap;html=1;" parent="UOWZPONmYOvx8WyAluzy-45" vertex="1">
          <mxGeometry x="50" y="150" width="80" height="30" as="geometry" />
        </mxCell>
        <mxCell id="UOWZPONmYOvx8WyAluzy-50" value="Lab3" style="text;strokeColor=none;fillColor=none;align=left;verticalAlign=middle;spacingLeft=4;spacingRight=4;overflow=hidden;points=[[0,0.5],[1,0.5]];portConstraint=eastwest;rotatable=0;whiteSpace=wrap;html=1;" parent="UOWZPONmYOvx8WyAluzy-45" vertex="1">
          <mxGeometry x="50" y="180" width="80" height="30" as="geometry" />
        </mxCell>
        <mxCell id="UOWZPONmYOvx8WyAluzy-51" value="start" style="text;strokeColor=none;fillColor=none;align=left;verticalAlign=middle;spacingLeft=4;spacingRight=4;overflow=hidden;points=[[0,0.5],[1,0.5]];portConstraint=eastwest;rotatable=0;whiteSpace=wrap;html=1;" parent="UOWZPONmYOvx8WyAluzy-45" vertex="1">
          <mxGeometry x="350" y="120" width="40" height="30" as="geometry" />
        </mxCell>
        <mxCell id="UOWZPONmYOvx8WyAluzy-52" value="stop" style="text;strokeColor=none;fillColor=none;align=left;verticalAlign=middle;spacingLeft=4;spacingRight=4;overflow=hidden;points=[[0,0.5],[1,0.5]];portConstraint=eastwest;rotatable=0;whiteSpace=wrap;html=1;" parent="UOWZPONmYOvx8WyAluzy-45" vertex="1">
          <mxGeometry x="350" y="150" width="40" height="30" as="geometry" />
        </mxCell>
        <mxCell id="UOWZPONmYOvx8WyAluzy-53" value="console" style="text;strokeColor=none;fillColor=none;align=left;verticalAlign=middle;spacingLeft=4;spacingRight=4;overflow=hidden;points=[[0,0.5],[1,0.5]];portConstraint=eastwest;rotatable=0;whiteSpace=wrap;html=1;" parent="UOWZPONmYOvx8WyAluzy-45" vertex="1">
          <mxGeometry x="300" y="150" width="50" height="30" as="geometry" />
        </mxCell>
        <mxCell id="UOWZPONmYOvx8WyAluzy-54" value="1/3 Session" style="text;strokeColor=none;fillColor=none;align=left;verticalAlign=middle;spacingLeft=4;spacingRight=4;overflow=hidden;points=[[0,0.5],[1,0.5]];portConstraint=eastwest;rotatable=0;whiteSpace=wrap;html=1;" parent="UOWZPONmYOvx8WyAluzy-45" vertex="1">
          <mxGeometry x="460" y="110" width="80" height="30" as="geometry" />
        </mxCell>
        <mxCell id="UOWZPONmYOvx8WyAluzy-55" value="start" style="text;strokeColor=none;fillColor=none;align=left;verticalAlign=middle;spacingLeft=4;spacingRight=4;overflow=hidden;points=[[0,0.5],[1,0.5]];portConstraint=eastwest;rotatable=0;whiteSpace=wrap;html=1;" parent="UOWZPONmYOvx8WyAluzy-45" vertex="1">
          <mxGeometry x="350" y="175" width="40" height="30" as="geometry" />
        </mxCell>
        <mxCell id="UOWZPONmYOvx8WyAluzy-56" value="8/10 done" style="text;strokeColor=none;fillColor=none;align=left;verticalAlign=middle;spacingLeft=4;spacingRight=4;overflow=hidden;points=[[0,0.5],[1,0.5]];portConstraint=eastwest;rotatable=0;whiteSpace=wrap;html=1;" parent="UOWZPONmYOvx8WyAluzy-45" vertex="1">
          <mxGeometry x="100" y="150" width="70" height="30" as="geometry" />
        </mxCell>
        <mxCell id="cBvfc4a4BUQHZ_fMePWL-1" value="" style="strokeWidth=1;shadow=0;dashed=0;align=center;html=1;shape=mxgraph.mockup.containers.browserWindow;rSize=0;strokeColor=#666666;strokeColor2=#008cff;strokeColor3=#c4c4c4;mainText=,;recursiveResize=0;" vertex="1" parent="1">
          <mxGeometry x="150" y="1200" width="770" height="620" as="geometry" />
        </mxCell>
        <mxCell id="cBvfc4a4BUQHZ_fMePWL-2" value="Page 1" style="strokeWidth=1;shadow=0;dashed=0;align=center;html=1;shape=mxgraph.mockup.containers.anchor;fontSize=17;fontColor=#666666;align=left;whiteSpace=wrap;" vertex="1" parent="cBvfc4a4BUQHZ_fMePWL-1">
          <mxGeometry x="60" y="12" width="110" height="26" as="geometry" />
        </mxCell>
        <mxCell id="cBvfc4a4BUQHZ_fMePWL-3" value="https://www.draw.io" style="strokeWidth=1;shadow=0;dashed=0;align=center;html=1;shape=mxgraph.mockup.containers.anchor;rSize=0;fontSize=17;fontColor=#666666;align=left;" vertex="1" parent="cBvfc4a4BUQHZ_fMePWL-1">
          <mxGeometry x="130" y="60" width="250" height="26" as="geometry" />
        </mxCell>
        <mxCell id="cBvfc4a4BUQHZ_fMePWL-5" value="CLI" style="rounded=0;whiteSpace=wrap;html=1;" vertex="1" parent="cBvfc4a4BUQHZ_fMePWL-1">
          <mxGeometry y="140" width="390" height="450" as="geometry" />
        </mxCell>
        <mxCell id="cBvfc4a4BUQHZ_fMePWL-10" value="Docs" style="rounded=0;whiteSpace=wrap;html=1;" vertex="1" parent="cBvfc4a4BUQHZ_fMePWL-1">
          <mxGeometry x="390" y="140" width="380" height="320" as="geometry" />
        </mxCell>
        <mxCell id="cBvfc4a4BUQHZ_fMePWL-11" value="Hints / Solution" style="rounded=0;whiteSpace=wrap;html=1;" vertex="1" parent="cBvfc4a4BUQHZ_fMePWL-1">
          <mxGeometry x="390" y="460" width="380" height="130" as="geometry" />
        </mxCell>
        <mxCell id="cBvfc4a4BUQHZ_fMePWL-12" value="Check" style="strokeWidth=1;shadow=0;dashed=0;align=center;html=1;shape=mxgraph.mockup.buttons.button;strokeColor=#666666;fontColor=#ffffff;mainText=;buttonStyle=round;fontSize=17;fontStyle=1;fillColor=#008cff;whiteSpace=wrap;" vertex="1" parent="cBvfc4a4BUQHZ_fMePWL-1">
          <mxGeometry x="660" y="600" width="100" height="20" as="geometry" />
        </mxCell>
        <mxCell id="cBvfc4a4BUQHZ_fMePWL-13" value="Reveal Hint / Solution" style="strokeWidth=1;shadow=0;dashed=0;align=center;html=1;shape=mxgraph.mockup.buttons.button;strokeColor=#666666;fontColor=#ffffff;mainText=;buttonStyle=round;fontSize=17;fontStyle=1;fillColor=#008cff;whiteSpace=wrap;" vertex="1" parent="cBvfc4a4BUQHZ_fMePWL-1">
          <mxGeometry x="490" y="480" width="180" height="20" as="geometry" />
        </mxCell>
        <mxCell id="cBvfc4a4BUQHZ_fMePWL-14" value="" style="ellipse;whiteSpace=wrap;html=1;aspect=fixed;" vertex="1" parent="cBvfc4a4BUQHZ_fMePWL-1">
          <mxGeometry x="10" y="600" width="20" height="20" as="geometry" />
        </mxCell>
        <mxCell id="cBvfc4a4BUQHZ_fMePWL-15" value="" style="ellipse;whiteSpace=wrap;html=1;aspect=fixed;" vertex="1" parent="cBvfc4a4BUQHZ_fMePWL-1">
          <mxGeometry x="60" y="600" width="20" height="20" as="geometry" />
        </mxCell>
        <mxCell id="cBvfc4a4BUQHZ_fMePWL-16" value="" style="ellipse;whiteSpace=wrap;html=1;aspect=fixed;" vertex="1" parent="cBvfc4a4BUQHZ_fMePWL-1">
          <mxGeometry x="110" y="600" width="20" height="20" as="geometry" />
        </mxCell>
        <mxCell id="cBvfc4a4BUQHZ_fMePWL-17" value="" style="ellipse;whiteSpace=wrap;html=1;aspect=fixed;" vertex="1" parent="cBvfc4a4BUQHZ_fMePWL-1">
          <mxGeometry x="160" y="600" width="20" height="20" as="geometry" />
        </mxCell>
        <mxCell id="cBvfc4a4BUQHZ_fMePWL-18" value="Start Exercise" style="strokeWidth=1;shadow=0;dashed=0;align=center;html=1;shape=mxgraph.mockup.buttons.button;strokeColor=#666666;fontColor=#ffffff;mainText=;buttonStyle=round;fontSize=17;fontStyle=1;fillColor=#008cff;whiteSpace=wrap;" vertex="1" parent="cBvfc4a4BUQHZ_fMePWL-1">
          <mxGeometry x="120" y="250" width="150" height="40" as="geometry" />
        </mxCell>
      </root>
    </mxGraphModel>
  </diagram>
</mxfile>
